<?xml version="1.0" encoding="UTF-8"?>
<svg id="Capa_2" data-name="Capa 2" xmlns="http://www.w3.org/2000/svg" xmlns:xlink="http://www.w3.org/1999/xlink" viewBox="0 0 385.26 337.23">
  <defs>
    <style>
      .cls-1 {
        fill: url(#Degradado_sin_nombre_4-2);
      }

      .cls-2 {
        fill: none;
        stroke: url(#Degradado_sin_nombre_4);
        stroke-miterlimit: 10;
      }

      .cls-3 {
        fill: #b3c31b;
      }

      .cls-4 {
        fill: url(#Degradado_sin_nombre_4-3);
      }

      .cls-5 {
        fill: #1e294b;
        font-family: Poppins-Regular, 'Poppins Regular';
        font-size: 22.33px;
        letter-spacing: .02em;
      }

      .cls-6 {
        fill: #6cab32;
      }

      .cls-7 {
        fill: #009bce;
      }

      .cls-8 {
        fill: #2b376d;
      }
    </style>
    <linearGradient id="Degradado_sin_nombre_4" data-name="Degradado sin nombre 4" x1="140.52" y1="204.32" x2="290.02" y2="204.32" gradientUnits="userSpaceOnUse">
      <stop offset="0" stop-color="#1e294c"/>
      <stop offset=".29" stop-color="#1b3969"/>
      <stop offset=".4" stop-color="#1c335e"/>
      <stop offset=".53" stop-color="#1e2a4d"/>
      <stop offset=".78" stop-color="#1c396b"/>
      <stop offset="1" stop-color="#1e294c"/>
    </linearGradient>
    <linearGradient id="Degradado_sin_nombre_4-2" data-name="Degradado sin nombre 4" x1="0" y1="166" x2="385.26" y2="166" xlink:href="#Degradado_sin_nombre_4"/>
    <linearGradient id="Degradado_sin_nombre_4-3" data-name="Degradado sin nombre 4" x1="61.86" y1="288.63" x2="113.08" y2="288.63" xlink:href="#Degradado_sin_nombre_4"/>
  </defs>
  <g id="OPCIÓN_2" data-name="OPCIÓN 2">
    <g>
      <text class="cls-5" transform="translate(169.15 235.46)"><tspan x="0" y="0">10 años</tspan></text>
      <line class="cls-2" x1="140.52" y1="204.32" x2="290.02" y2="204.32"/>
      <g>
        <path class="cls-1" d="M53.25,99.76l-53.25-1.46v-46.24h9.68c24.11,0,43.71-19.46,43.87-43.57l49.91,1.07-1.39,138.34.68-11.44c1.25-11.72,4.43-22.6,9.94-33.69,2.04-4.11,1.14.08,1.32-8.17l.68-57.54C142.87,13.71,177.58.56,216.91.02c92.36-1.28,167.45,72,168.34,164.36.89,92.34-73.86,167.63-166,167.63-91.68,0-166-74.32-166-166v-66.24ZM219.25,48.5c-65.59,0-116.54,35.65-117.18,99.4-.74,73.45,51.59,138.12,117.18,138.12s118.76-53.17,118.76-118.76-53.17-118.76-118.76-118.76Z"/>
        <path class="cls-4" d="M112.94,306.96l.14,30.27h-51.22v-97.2l7.08,16c1.65,3.72,3.53,7.34,5.72,10.77,10.55,16.49,16.07,25.37,38.28,40.16h0Z"/>
      </g>
      <g>
        <polygon class="cls-8" points="237.73 143.49 237.73 149.39 222.91 149.39 222.91 170.27 217.01 170.27 217.01 149.39 202.19 149.39 202.19 143.49 217.01 143.49 217.01 126.84 222.91 126.84 222.91 143.49 237.73 143.49"/>
        <rect class="cls-6" x="136.46" y="127.92" width="5.39" height="44.1"/>
        <path class="cls-6" d="M159.46,119.75c0,2.11-1.72,3.83-3.83,3.83s-3.83-1.72-3.83-3.83,1.71-3.83,3.83-3.83,3.83,1.71,3.83,3.83Z"/>
        <path class="cls-6" d="M184.16,119.75c0,2.11-1.72,3.83-3.83,3.83s-3.83-1.72-3.83-3.83,1.71-3.83,3.83-3.83,3.83,1.71,3.83,3.83Z"/>
        <g>
          <polygon class="cls-8" points="284.12 102.18 284.12 120.35 278.85 116.09 278.85 102.18 284.12 102.18"/>
          <path class="cls-8" d="M278.85,126.99v6.89c-.47-.52-.98-1.03-1.54-1.52-3.02-2.53-6.71-3.81-10.97-3.81-5.71,0-10.22,1.99-13.43,5.9-3.12,3.78-4.7,9.14-4.7,15.92s1.58,12.33,4.68,16.17c3.23,4.02,7.76,6.05,13.46,6.05,4.23,0,7.91-1.34,10.96-3.97.56-.49,1.09-1.02,1.56-1.56v5.18h5.27v-40.99l-5.27-4.27ZM266.33,167.32c-4.12,0-7.2-1.33-9.42-4.07-2.28-2.86-3.44-7.2-3.44-12.88s1.16-9.77,3.47-12.55c2.22-2.69,5.29-4,9.39-4,2.52,0,4.63.58,6.48,1.79,1.84,1.17,3.31,2.98,4.37,5.38,1.11,2.51,1.67,5.66,1.67,9.38,0,5.19-1.16,9.42-3.44,12.57-2.16,2.95-5.13,4.38-9.08,4.38Z"/>
        </g>
        <path class="cls-7" d="M238.11,121.85l-2.97,3.49-.35-.25c-5.49-3.76-12.69-5.24-19.23-4.16-6.45,1.06-12.81,4.69-16.9,10.09l-.25.35-3.85-2.4.39-.63c4.7-6.54,11.93-10.69,19.87-11.99,7.94-1.3,16.11.31,22.65,5.02l.65.48Z"/>
        <path class="cls-7" d="M201.9,174.44l2.97-3.49.35.25c5.49,3.76,12.69,5.24,19.23,4.16,6.45-1.06,12.81-4.69,16.9-10.09l.25-.35,3.85,2.4-.39.63c-4.7,6.54-11.93,10.69-19.87,11.99-7.94,1.3-16.11-.31-22.65-5.02l-.65-.48Z"/>
        <polygon class="cls-3" points="294.08 130.7 286.36 130.7 286.3 130.66 266.31 114.59 245.91 130.76 238.23 130.76 266.32 108.38 266.45 108.49 294.08 130.7"/>
        <path class="cls-8" d="M167.7,142.19c0,1.28,0,29.33,0,29.61v.22h-5.34v-23.98c0-.71.39-8.74-.94-11.46-.76-1.56-3.23-4.07-7.38-4.07-3.61,0-5.96,2.32-7.53,4.24-1.38,1.69-2.19,3.19-2.19,3.19v-7.83c2.91-4,7.5-5.33,9.79-5.27,2.05.06,13.6-.14,13.6,15.35Z"/>
        <path class="cls-8" d="M192.46,142.19c0,1.28,0,29.33,0,29.61v.22h-5.34v-23.98c0-.71.39-8.74-.94-11.46-.76-1.56-3.23-4.07-7.38-4.07-3.61,0-5.96,2.32-7.53,4.24-1.38,1.69-1.84,3.19-1.84,3.19,0,0,.03-1.1-.02-1.63-.14-1.37-.5-2.85-.77-3.8-.16-.55-.61-1.43-.61-1.43.31-.59.33-.59.49-.79.14-.18.57-.68.57-.68,3.29-3.79,7.5-4.83,9.79-4.77,2.05.06,13.6-.14,13.6,15.35Z"/>
      </g>
    </g>
  </g>
</svg>